<mxfile host="app.diagrams.net" modified="2024-05-12T07:19:25.293Z" agent="Mozilla/5.0 (Windows NT 10.0; Win64; x64) AppleWebKit/537.36 (KHTML, like Gecko) Chrome/124.0.0.0 Safari/537.36" etag="1pTcAbyPAoRpBltNfWtj" version="24.4.0" type="github">
  <diagram name="Page-1" id="7tcghA5O4iVg9XCuo4NI">
    <mxGraphModel dx="2336" dy="813" grid="1" gridSize="10" guides="1" tooltips="1" connect="1" arrows="1" fold="1" page="1" pageScale="1" pageWidth="827" pageHeight="1169" math="0" shadow="0">
      <root>
        <mxCell id="0" />
        <mxCell id="1" parent="0" />
        <mxCell id="TxpxUodFQDuzSuq3pr_V-20" value="" style="group" vertex="1" connectable="0" parent="1">
          <mxGeometry x="-40" y="60" width="360" height="250" as="geometry" />
        </mxCell>
        <mxCell id="b7hbQGppqmH5EkRF_Ry8-10" style="rounded=0;orthogonalLoop=1;jettySize=auto;html=1;exitX=0;exitY=1;exitDx=0;exitDy=0;entryX=1;entryY=0.5;entryDx=0;entryDy=0;endArrow=none;endFill=0;" parent="TxpxUodFQDuzSuq3pr_V-20" source="b7hbQGppqmH5EkRF_Ry8-1" target="b7hbQGppqmH5EkRF_Ry8-2" edge="1">
          <mxGeometry relative="1" as="geometry" />
        </mxCell>
        <mxCell id="b7hbQGppqmH5EkRF_Ry8-11" style="edgeStyle=orthogonalEdgeStyle;rounded=0;orthogonalLoop=1;jettySize=auto;html=1;exitX=0;exitY=0.5;exitDx=0;exitDy=0;entryX=1;entryY=0.5;entryDx=0;entryDy=0;endArrow=none;endFill=0;" parent="TxpxUodFQDuzSuq3pr_V-20" source="b7hbQGppqmH5EkRF_Ry8-1" target="b7hbQGppqmH5EkRF_Ry8-3" edge="1">
          <mxGeometry relative="1" as="geometry" />
        </mxCell>
        <mxCell id="b7hbQGppqmH5EkRF_Ry8-12" style="rounded=0;orthogonalLoop=1;jettySize=auto;html=1;exitX=0;exitY=0;exitDx=0;exitDy=0;entryX=1;entryY=0.5;entryDx=0;entryDy=0;endArrow=none;endFill=0;" parent="TxpxUodFQDuzSuq3pr_V-20" source="b7hbQGppqmH5EkRF_Ry8-1" target="b7hbQGppqmH5EkRF_Ry8-4" edge="1">
          <mxGeometry relative="1" as="geometry" />
        </mxCell>
        <mxCell id="b7hbQGppqmH5EkRF_Ry8-13" style="rounded=0;orthogonalLoop=1;jettySize=auto;html=1;exitX=0.25;exitY=0;exitDx=0;exitDy=0;entryX=0.5;entryY=1;entryDx=0;entryDy=0;endArrow=none;endFill=0;" parent="TxpxUodFQDuzSuq3pr_V-20" source="b7hbQGppqmH5EkRF_Ry8-1" target="b7hbQGppqmH5EkRF_Ry8-5" edge="1">
          <mxGeometry relative="1" as="geometry" />
        </mxCell>
        <mxCell id="b7hbQGppqmH5EkRF_Ry8-14" style="rounded=0;orthogonalLoop=1;jettySize=auto;html=1;exitX=0.5;exitY=0;exitDx=0;exitDy=0;entryX=0.5;entryY=1;entryDx=0;entryDy=0;endArrow=none;endFill=0;" parent="TxpxUodFQDuzSuq3pr_V-20" source="b7hbQGppqmH5EkRF_Ry8-1" target="b7hbQGppqmH5EkRF_Ry8-6" edge="1">
          <mxGeometry relative="1" as="geometry" />
        </mxCell>
        <mxCell id="b7hbQGppqmH5EkRF_Ry8-15" style="rounded=0;orthogonalLoop=1;jettySize=auto;html=1;exitX=1;exitY=0;exitDx=0;exitDy=0;entryX=0;entryY=0.5;entryDx=0;entryDy=0;endArrow=none;endFill=0;" parent="TxpxUodFQDuzSuq3pr_V-20" source="b7hbQGppqmH5EkRF_Ry8-1" target="b7hbQGppqmH5EkRF_Ry8-7" edge="1">
          <mxGeometry relative="1" as="geometry" />
        </mxCell>
        <mxCell id="b7hbQGppqmH5EkRF_Ry8-16" style="edgeStyle=orthogonalEdgeStyle;rounded=0;orthogonalLoop=1;jettySize=auto;html=1;exitX=1;exitY=0.5;exitDx=0;exitDy=0;entryX=0;entryY=0.5;entryDx=0;entryDy=0;endArrow=none;endFill=0;" parent="TxpxUodFQDuzSuq3pr_V-20" source="b7hbQGppqmH5EkRF_Ry8-1" target="b7hbQGppqmH5EkRF_Ry8-8" edge="1">
          <mxGeometry relative="1" as="geometry" />
        </mxCell>
        <mxCell id="b7hbQGppqmH5EkRF_Ry8-1" value="Customers" style="rounded=0;whiteSpace=wrap;html=1;" parent="TxpxUodFQDuzSuq3pr_V-20" vertex="1">
          <mxGeometry x="130" y="120" width="120" height="60" as="geometry" />
        </mxCell>
        <mxCell id="b7hbQGppqmH5EkRF_Ry8-2" value="CustomerID" style="ellipse;whiteSpace=wrap;html=1;fontStyle=4" parent="TxpxUodFQDuzSuq3pr_V-20" vertex="1">
          <mxGeometry y="200" width="80" height="50" as="geometry" />
        </mxCell>
        <mxCell id="b7hbQGppqmH5EkRF_Ry8-3" value="FirstName" style="ellipse;whiteSpace=wrap;html=1;" parent="TxpxUodFQDuzSuq3pr_V-20" vertex="1">
          <mxGeometry y="125" width="80" height="50" as="geometry" />
        </mxCell>
        <mxCell id="b7hbQGppqmH5EkRF_Ry8-4" value="LastName" style="ellipse;whiteSpace=wrap;html=1;" parent="TxpxUodFQDuzSuq3pr_V-20" vertex="1">
          <mxGeometry x="10" y="50" width="80" height="50" as="geometry" />
        </mxCell>
        <mxCell id="b7hbQGppqmH5EkRF_Ry8-5" value="Email" style="ellipse;whiteSpace=wrap;html=1;" parent="TxpxUodFQDuzSuq3pr_V-20" vertex="1">
          <mxGeometry x="100" width="80" height="50" as="geometry" />
        </mxCell>
        <mxCell id="b7hbQGppqmH5EkRF_Ry8-6" value="PhoneNumber" style="ellipse;whiteSpace=wrap;html=1;" parent="TxpxUodFQDuzSuq3pr_V-20" vertex="1">
          <mxGeometry x="190" width="80" height="50" as="geometry" />
        </mxCell>
        <mxCell id="b7hbQGppqmH5EkRF_Ry8-7" value="Address" style="ellipse;whiteSpace=wrap;html=1;" parent="TxpxUodFQDuzSuq3pr_V-20" vertex="1">
          <mxGeometry x="280" y="50" width="80" height="50" as="geometry" />
        </mxCell>
        <mxCell id="b7hbQGppqmH5EkRF_Ry8-8" value="DateOfBirth" style="ellipse;whiteSpace=wrap;html=1;" parent="TxpxUodFQDuzSuq3pr_V-20" vertex="1">
          <mxGeometry x="280" y="120" width="80" height="50" as="geometry" />
        </mxCell>
        <mxCell id="TxpxUodFQDuzSuq3pr_V-62" value="1" style="text;html=1;align=center;verticalAlign=middle;whiteSpace=wrap;rounded=0;" vertex="1" parent="TxpxUodFQDuzSuq3pr_V-20">
          <mxGeometry x="210" y="180" width="60" height="30" as="geometry" />
        </mxCell>
        <mxCell id="TxpxUodFQDuzSuq3pr_V-63" value="1" style="text;html=1;align=center;verticalAlign=middle;whiteSpace=wrap;rounded=0;" vertex="1" parent="TxpxUodFQDuzSuq3pr_V-20">
          <mxGeometry x="140" y="180" width="60" height="30" as="geometry" />
        </mxCell>
        <mxCell id="TxpxUodFQDuzSuq3pr_V-21" value="" style="group;fontStyle=4" vertex="1" connectable="0" parent="1">
          <mxGeometry x="477" y="110" width="350" height="165" as="geometry" />
        </mxCell>
        <mxCell id="b7hbQGppqmH5EkRF_Ry8-17" value="Accounts" style="rounded=0;whiteSpace=wrap;html=1;" parent="TxpxUodFQDuzSuq3pr_V-21" vertex="1">
          <mxGeometry x="120" y="105" width="120" height="60" as="geometry" />
        </mxCell>
        <mxCell id="b7hbQGppqmH5EkRF_Ry8-24" style="edgeStyle=orthogonalEdgeStyle;rounded=0;orthogonalLoop=1;jettySize=auto;html=1;exitX=1;exitY=0.5;exitDx=0;exitDy=0;entryX=0;entryY=0.5;entryDx=0;entryDy=0;endArrow=none;endFill=0;" parent="TxpxUodFQDuzSuq3pr_V-21" source="b7hbQGppqmH5EkRF_Ry8-18" target="b7hbQGppqmH5EkRF_Ry8-17" edge="1">
          <mxGeometry relative="1" as="geometry" />
        </mxCell>
        <mxCell id="b7hbQGppqmH5EkRF_Ry8-18" value="&lt;u&gt;AccountID&lt;/u&gt;" style="ellipse;whiteSpace=wrap;html=1;" parent="TxpxUodFQDuzSuq3pr_V-21" vertex="1">
          <mxGeometry y="110" width="80" height="50" as="geometry" />
        </mxCell>
        <mxCell id="b7hbQGppqmH5EkRF_Ry8-25" style="rounded=0;orthogonalLoop=1;jettySize=auto;html=1;exitX=1;exitY=1;exitDx=0;exitDy=0;entryX=0;entryY=0;entryDx=0;entryDy=0;endArrow=none;endFill=0;" parent="TxpxUodFQDuzSuq3pr_V-21" source="b7hbQGppqmH5EkRF_Ry8-19" target="b7hbQGppqmH5EkRF_Ry8-17" edge="1">
          <mxGeometry relative="1" as="geometry" />
        </mxCell>
        <mxCell id="b7hbQGppqmH5EkRF_Ry8-19" value="CustomerID" style="ellipse;whiteSpace=wrap;html=1;" parent="TxpxUodFQDuzSuq3pr_V-21" vertex="1">
          <mxGeometry x="30" y="40" width="80" height="50" as="geometry" />
        </mxCell>
        <mxCell id="b7hbQGppqmH5EkRF_Ry8-26" style="edgeStyle=orthogonalEdgeStyle;rounded=0;orthogonalLoop=1;jettySize=auto;html=1;exitX=0.5;exitY=1;exitDx=0;exitDy=0;entryX=0.5;entryY=0;entryDx=0;entryDy=0;endArrow=none;endFill=0;" parent="TxpxUodFQDuzSuq3pr_V-21" source="b7hbQGppqmH5EkRF_Ry8-20" target="b7hbQGppqmH5EkRF_Ry8-17" edge="1">
          <mxGeometry relative="1" as="geometry" />
        </mxCell>
        <mxCell id="b7hbQGppqmH5EkRF_Ry8-20" value="AccountType" style="ellipse;whiteSpace=wrap;html=1;" parent="TxpxUodFQDuzSuq3pr_V-21" vertex="1">
          <mxGeometry x="140" width="80" height="50" as="geometry" />
        </mxCell>
        <mxCell id="b7hbQGppqmH5EkRF_Ry8-27" style="rounded=0;orthogonalLoop=1;jettySize=auto;html=1;exitX=0;exitY=1;exitDx=0;exitDy=0;entryX=1;entryY=0;entryDx=0;entryDy=0;endArrow=none;endFill=0;" parent="TxpxUodFQDuzSuq3pr_V-21" source="b7hbQGppqmH5EkRF_Ry8-21" target="b7hbQGppqmH5EkRF_Ry8-17" edge="1">
          <mxGeometry relative="1" as="geometry" />
        </mxCell>
        <mxCell id="b7hbQGppqmH5EkRF_Ry8-21" value="Balance" style="ellipse;whiteSpace=wrap;html=1;" parent="TxpxUodFQDuzSuq3pr_V-21" vertex="1">
          <mxGeometry x="240" y="40" width="80" height="50" as="geometry" />
        </mxCell>
        <mxCell id="b7hbQGppqmH5EkRF_Ry8-28" style="edgeStyle=orthogonalEdgeStyle;rounded=0;orthogonalLoop=1;jettySize=auto;html=1;exitX=0;exitY=0.5;exitDx=0;exitDy=0;entryX=1;entryY=0.5;entryDx=0;entryDy=0;endArrow=none;endFill=0;" parent="TxpxUodFQDuzSuq3pr_V-21" source="b7hbQGppqmH5EkRF_Ry8-22" target="b7hbQGppqmH5EkRF_Ry8-17" edge="1">
          <mxGeometry relative="1" as="geometry" />
        </mxCell>
        <mxCell id="b7hbQGppqmH5EkRF_Ry8-22" value="OpenDate" style="ellipse;whiteSpace=wrap;html=1;" parent="TxpxUodFQDuzSuq3pr_V-21" vertex="1">
          <mxGeometry x="270" y="115" width="80" height="50" as="geometry" />
        </mxCell>
        <mxCell id="TxpxUodFQDuzSuq3pr_V-45" value="" style="group" vertex="1" connectable="0" parent="1">
          <mxGeometry x="-250" y="425" width="320" height="320" as="geometry" />
        </mxCell>
        <mxCell id="TxpxUodFQDuzSuq3pr_V-23" style="rounded=0;orthogonalLoop=1;jettySize=auto;html=1;exitX=1;exitY=0;exitDx=0;exitDy=0;entryX=0.5;entryY=1;entryDx=0;entryDy=0;endArrow=none;endFill=0;" edge="1" parent="TxpxUodFQDuzSuq3pr_V-45" source="b7hbQGppqmH5EkRF_Ry8-29" target="b7hbQGppqmH5EkRF_Ry8-37">
          <mxGeometry relative="1" as="geometry" />
        </mxCell>
        <mxCell id="TxpxUodFQDuzSuq3pr_V-24" style="rounded=0;orthogonalLoop=1;jettySize=auto;html=1;exitX=0.5;exitY=0;exitDx=0;exitDy=0;entryX=0.5;entryY=1;entryDx=0;entryDy=0;endArrow=none;endFill=0;" edge="1" parent="TxpxUodFQDuzSuq3pr_V-45" source="b7hbQGppqmH5EkRF_Ry8-29" target="b7hbQGppqmH5EkRF_Ry8-34">
          <mxGeometry relative="1" as="geometry" />
        </mxCell>
        <mxCell id="TxpxUodFQDuzSuq3pr_V-25" style="rounded=0;orthogonalLoop=1;jettySize=auto;html=1;exitX=0;exitY=0;exitDx=0;exitDy=0;entryX=1;entryY=0.5;entryDx=0;entryDy=0;endArrow=none;endFill=0;" edge="1" parent="TxpxUodFQDuzSuq3pr_V-45" source="b7hbQGppqmH5EkRF_Ry8-29" target="b7hbQGppqmH5EkRF_Ry8-31">
          <mxGeometry relative="1" as="geometry" />
        </mxCell>
        <mxCell id="TxpxUodFQDuzSuq3pr_V-26" style="rounded=0;orthogonalLoop=1;jettySize=auto;html=1;exitX=0;exitY=0.5;exitDx=0;exitDy=0;entryX=1;entryY=0.5;entryDx=0;entryDy=0;endArrow=none;endFill=0;" edge="1" parent="TxpxUodFQDuzSuq3pr_V-45" source="b7hbQGppqmH5EkRF_Ry8-29" target="b7hbQGppqmH5EkRF_Ry8-32">
          <mxGeometry relative="1" as="geometry" />
        </mxCell>
        <mxCell id="TxpxUodFQDuzSuq3pr_V-27" style="rounded=0;orthogonalLoop=1;jettySize=auto;html=1;exitX=0;exitY=1;exitDx=0;exitDy=0;entryX=1;entryY=0.5;entryDx=0;entryDy=0;endArrow=none;endFill=0;" edge="1" parent="TxpxUodFQDuzSuq3pr_V-45" source="b7hbQGppqmH5EkRF_Ry8-29" target="b7hbQGppqmH5EkRF_Ry8-30">
          <mxGeometry relative="1" as="geometry" />
        </mxCell>
        <mxCell id="TxpxUodFQDuzSuq3pr_V-28" style="rounded=0;orthogonalLoop=1;jettySize=auto;html=1;exitX=0.25;exitY=1;exitDx=0;exitDy=0;entryX=1;entryY=0;entryDx=0;entryDy=0;endArrow=none;endFill=0;" edge="1" parent="TxpxUodFQDuzSuq3pr_V-45" source="b7hbQGppqmH5EkRF_Ry8-29" target="b7hbQGppqmH5EkRF_Ry8-33">
          <mxGeometry relative="1" as="geometry" />
        </mxCell>
        <mxCell id="TxpxUodFQDuzSuq3pr_V-29" style="rounded=0;orthogonalLoop=1;jettySize=auto;html=1;exitX=0.5;exitY=1;exitDx=0;exitDy=0;entryX=0.5;entryY=0;entryDx=0;entryDy=0;endArrow=none;endFill=0;" edge="1" parent="TxpxUodFQDuzSuq3pr_V-45" source="b7hbQGppqmH5EkRF_Ry8-29" target="b7hbQGppqmH5EkRF_Ry8-35">
          <mxGeometry relative="1" as="geometry" />
        </mxCell>
        <mxCell id="TxpxUodFQDuzSuq3pr_V-30" style="rounded=0;orthogonalLoop=1;jettySize=auto;html=1;exitX=1;exitY=1;exitDx=0;exitDy=0;endArrow=none;endFill=0;" edge="1" parent="TxpxUodFQDuzSuq3pr_V-45" source="b7hbQGppqmH5EkRF_Ry8-29" target="b7hbQGppqmH5EkRF_Ry8-36">
          <mxGeometry relative="1" as="geometry" />
        </mxCell>
        <mxCell id="b7hbQGppqmH5EkRF_Ry8-29" value="Tramsactions" style="rounded=0;whiteSpace=wrap;html=1;" parent="TxpxUodFQDuzSuq3pr_V-45" vertex="1">
          <mxGeometry x="140" y="115" width="120" height="60" as="geometry" />
        </mxCell>
        <mxCell id="b7hbQGppqmH5EkRF_Ry8-30" value="Transaction&lt;br&gt;Date" style="ellipse;whiteSpace=wrap;html=1;" parent="TxpxUodFQDuzSuq3pr_V-45" vertex="1">
          <mxGeometry x="10" y="175" width="80" height="50" as="geometry" />
        </mxCell>
        <mxCell id="b7hbQGppqmH5EkRF_Ry8-31" value="Receiver&lt;br&gt;AccountID" style="ellipse;whiteSpace=wrap;html=1;" parent="TxpxUodFQDuzSuq3pr_V-45" vertex="1">
          <mxGeometry x="40" y="50" width="80" height="50" as="geometry" />
        </mxCell>
        <mxCell id="b7hbQGppqmH5EkRF_Ry8-32" value="Amount" style="ellipse;whiteSpace=wrap;html=1;" parent="TxpxUodFQDuzSuq3pr_V-45" vertex="1">
          <mxGeometry y="115" width="80" height="50" as="geometry" />
        </mxCell>
        <mxCell id="b7hbQGppqmH5EkRF_Ry8-33" value="Transaction&lt;br&gt;Status" style="ellipse;whiteSpace=wrap;html=1;" parent="TxpxUodFQDuzSuq3pr_V-45" vertex="1">
          <mxGeometry x="60" y="240" width="80" height="50" as="geometry" />
        </mxCell>
        <mxCell id="b7hbQGppqmH5EkRF_Ry8-34" value="Sender&lt;br&gt;AccountID" style="ellipse;whiteSpace=wrap;html=1;" parent="TxpxUodFQDuzSuq3pr_V-45" vertex="1">
          <mxGeometry x="130" width="80" height="50" as="geometry" />
        </mxCell>
        <mxCell id="b7hbQGppqmH5EkRF_Ry8-35" value="Transaction&lt;br&gt;Type" style="ellipse;whiteSpace=wrap;html=1;" parent="TxpxUodFQDuzSuq3pr_V-45" vertex="1">
          <mxGeometry x="150" y="270" width="80" height="50" as="geometry" />
        </mxCell>
        <mxCell id="b7hbQGppqmH5EkRF_Ry8-36" value="Description" style="ellipse;whiteSpace=wrap;html=1;" parent="TxpxUodFQDuzSuq3pr_V-45" vertex="1">
          <mxGeometry x="240" y="240" width="80" height="50" as="geometry" />
        </mxCell>
        <mxCell id="b7hbQGppqmH5EkRF_Ry8-37" value="&lt;u&gt;TransactionsID&lt;/u&gt;" style="ellipse;whiteSpace=wrap;html=1;" parent="TxpxUodFQDuzSuq3pr_V-45" vertex="1">
          <mxGeometry x="230" y="10" width="80" height="50" as="geometry" />
        </mxCell>
        <mxCell id="TxpxUodFQDuzSuq3pr_V-64" value="n" style="text;html=1;align=center;verticalAlign=middle;whiteSpace=wrap;rounded=0;" vertex="1" parent="TxpxUodFQDuzSuq3pr_V-45">
          <mxGeometry x="240" y="115" width="60" height="30" as="geometry" />
        </mxCell>
        <mxCell id="TxpxUodFQDuzSuq3pr_V-65" value="1" style="text;html=1;align=center;verticalAlign=middle;whiteSpace=wrap;rounded=0;" vertex="1" parent="TxpxUodFQDuzSuq3pr_V-45">
          <mxGeometry x="240" y="160" width="60" height="30" as="geometry" />
        </mxCell>
        <mxCell id="TxpxUodFQDuzSuq3pr_V-47" value="" style="group" vertex="1" connectable="0" parent="1">
          <mxGeometry x="520" y="430" width="347" height="310" as="geometry" />
        </mxCell>
        <mxCell id="TxpxUodFQDuzSuq3pr_V-8" value="Transaction&lt;br&gt;Status" style="ellipse;whiteSpace=wrap;html=1;" vertex="1" parent="TxpxUodFQDuzSuq3pr_V-47">
          <mxGeometry x="90" y="260" width="80" height="50" as="geometry" />
        </mxCell>
        <mxCell id="TxpxUodFQDuzSuq3pr_V-46" value="" style="group" vertex="1" connectable="0" parent="TxpxUodFQDuzSuq3pr_V-47">
          <mxGeometry width="347" height="300" as="geometry" />
        </mxCell>
        <mxCell id="TxpxUodFQDuzSuq3pr_V-31" style="rounded=0;orthogonalLoop=1;jettySize=auto;html=1;exitX=1;exitY=0.5;exitDx=0;exitDy=0;entryX=0;entryY=0.5;entryDx=0;entryDy=0;endArrow=none;endFill=0;" edge="1" parent="TxpxUodFQDuzSuq3pr_V-46" source="b7hbQGppqmH5EkRF_Ry8-38" target="TxpxUodFQDuzSuq3pr_V-5">
          <mxGeometry relative="1" as="geometry" />
        </mxCell>
        <mxCell id="TxpxUodFQDuzSuq3pr_V-32" style="rounded=0;orthogonalLoop=1;jettySize=auto;html=1;exitX=1;exitY=0;exitDx=0;exitDy=0;entryX=0;entryY=0.5;entryDx=0;entryDy=0;endArrow=none;endFill=0;" edge="1" parent="TxpxUodFQDuzSuq3pr_V-46" source="b7hbQGppqmH5EkRF_Ry8-38" target="TxpxUodFQDuzSuq3pr_V-4">
          <mxGeometry relative="1" as="geometry" />
        </mxCell>
        <mxCell id="TxpxUodFQDuzSuq3pr_V-33" style="rounded=0;orthogonalLoop=1;jettySize=auto;html=1;exitX=0.5;exitY=0;exitDx=0;exitDy=0;entryX=0;entryY=1;entryDx=0;entryDy=0;endArrow=none;endFill=0;" edge="1" parent="TxpxUodFQDuzSuq3pr_V-46" source="b7hbQGppqmH5EkRF_Ry8-38" target="TxpxUodFQDuzSuq3pr_V-3">
          <mxGeometry relative="1" as="geometry" />
        </mxCell>
        <mxCell id="TxpxUodFQDuzSuq3pr_V-34" style="rounded=0;orthogonalLoop=1;jettySize=auto;html=1;exitX=0.25;exitY=0;exitDx=0;exitDy=0;entryX=0;entryY=0.5;entryDx=0;entryDy=0;endArrow=none;endFill=0;" edge="1" parent="TxpxUodFQDuzSuq3pr_V-46" source="b7hbQGppqmH5EkRF_Ry8-38" target="TxpxUodFQDuzSuq3pr_V-2">
          <mxGeometry relative="1" as="geometry" />
        </mxCell>
        <mxCell id="TxpxUodFQDuzSuq3pr_V-35" style="rounded=0;orthogonalLoop=1;jettySize=auto;html=1;exitX=1;exitY=1;exitDx=0;exitDy=0;entryX=0;entryY=0.5;entryDx=0;entryDy=0;endArrow=none;endFill=0;" edge="1" parent="TxpxUodFQDuzSuq3pr_V-46" source="b7hbQGppqmH5EkRF_Ry8-38" target="TxpxUodFQDuzSuq3pr_V-6">
          <mxGeometry relative="1" as="geometry" />
        </mxCell>
        <mxCell id="TxpxUodFQDuzSuq3pr_V-36" style="rounded=0;orthogonalLoop=1;jettySize=auto;html=1;exitX=0.75;exitY=1;exitDx=0;exitDy=0;entryX=0.5;entryY=0;entryDx=0;entryDy=0;endArrow=none;endFill=0;" edge="1" parent="TxpxUodFQDuzSuq3pr_V-46" source="b7hbQGppqmH5EkRF_Ry8-38" target="TxpxUodFQDuzSuq3pr_V-7">
          <mxGeometry relative="1" as="geometry" />
        </mxCell>
        <mxCell id="TxpxUodFQDuzSuq3pr_V-38" style="rounded=0;orthogonalLoop=1;jettySize=auto;html=1;exitX=0;exitY=1;exitDx=0;exitDy=0;endArrow=none;endFill=0;" edge="1" parent="TxpxUodFQDuzSuq3pr_V-46" source="b7hbQGppqmH5EkRF_Ry8-38" target="TxpxUodFQDuzSuq3pr_V-9">
          <mxGeometry relative="1" as="geometry" />
        </mxCell>
        <mxCell id="b7hbQGppqmH5EkRF_Ry8-38" value="Transaction&lt;br&gt;History" style="rounded=0;whiteSpace=wrap;html=1;" parent="TxpxUodFQDuzSuq3pr_V-46" vertex="1">
          <mxGeometry x="80" y="125" width="120" height="60" as="geometry" />
        </mxCell>
        <mxCell id="TxpxUodFQDuzSuq3pr_V-2" value="&lt;u&gt;HistoryID&lt;/u&gt;" style="ellipse;whiteSpace=wrap;html=1;" vertex="1" parent="TxpxUodFQDuzSuq3pr_V-46">
          <mxGeometry x="150" width="80" height="50" as="geometry" />
        </mxCell>
        <mxCell id="TxpxUodFQDuzSuq3pr_V-3" value="TransactionID" style="ellipse;whiteSpace=wrap;html=1;" vertex="1" parent="TxpxUodFQDuzSuq3pr_V-46">
          <mxGeometry x="240" y="20" width="80" height="50" as="geometry" />
        </mxCell>
        <mxCell id="TxpxUodFQDuzSuq3pr_V-4" value="Sender&lt;br&gt;AccountID" style="ellipse;whiteSpace=wrap;html=1;" vertex="1" parent="TxpxUodFQDuzSuq3pr_V-46">
          <mxGeometry x="260" y="80" width="80" height="50" as="geometry" />
        </mxCell>
        <mxCell id="TxpxUodFQDuzSuq3pr_V-5" value="Receiver&lt;br&gt;AccountID" style="ellipse;whiteSpace=wrap;html=1;" vertex="1" parent="TxpxUodFQDuzSuq3pr_V-46">
          <mxGeometry x="267" y="150" width="80" height="50" as="geometry" />
        </mxCell>
        <mxCell id="TxpxUodFQDuzSuq3pr_V-6" value="Amount" style="ellipse;whiteSpace=wrap;html=1;" vertex="1" parent="TxpxUodFQDuzSuq3pr_V-46">
          <mxGeometry x="260" y="210" width="80" height="50" as="geometry" />
        </mxCell>
        <mxCell id="TxpxUodFQDuzSuq3pr_V-7" value="Transaction&lt;br&gt;Date" style="ellipse;whiteSpace=wrap;html=1;" vertex="1" parent="TxpxUodFQDuzSuq3pr_V-46">
          <mxGeometry x="180" y="250" width="80" height="50" as="geometry" />
        </mxCell>
        <mxCell id="TxpxUodFQDuzSuq3pr_V-9" value="Description" style="ellipse;whiteSpace=wrap;html=1;" vertex="1" parent="TxpxUodFQDuzSuq3pr_V-46">
          <mxGeometry y="250" width="80" height="50" as="geometry" />
        </mxCell>
        <mxCell id="TxpxUodFQDuzSuq3pr_V-68" value="1" style="text;html=1;align=center;verticalAlign=middle;whiteSpace=wrap;rounded=0;" vertex="1" parent="TxpxUodFQDuzSuq3pr_V-46">
          <mxGeometry x="30" y="130" width="60" height="30" as="geometry" />
        </mxCell>
        <mxCell id="TxpxUodFQDuzSuq3pr_V-37" style="rounded=0;orthogonalLoop=1;jettySize=auto;html=1;exitX=0.5;exitY=1;exitDx=0;exitDy=0;entryX=0.5;entryY=0;entryDx=0;entryDy=0;endArrow=none;endFill=0;" edge="1" parent="TxpxUodFQDuzSuq3pr_V-47" source="b7hbQGppqmH5EkRF_Ry8-38" target="TxpxUodFQDuzSuq3pr_V-8">
          <mxGeometry relative="1" as="geometry" />
        </mxCell>
        <mxCell id="TxpxUodFQDuzSuq3pr_V-48" value="" style="group" vertex="1" connectable="0" parent="1">
          <mxGeometry x="180" y="760" width="360" height="140" as="geometry" />
        </mxCell>
        <mxCell id="TxpxUodFQDuzSuq3pr_V-39" style="rounded=0;orthogonalLoop=1;jettySize=auto;html=1;exitX=0;exitY=0.5;exitDx=0;exitDy=0;entryX=1;entryY=0.5;entryDx=0;entryDy=0;endArrow=none;endFill=0;" edge="1" parent="TxpxUodFQDuzSuq3pr_V-48" source="TxpxUodFQDuzSuq3pr_V-10" target="TxpxUodFQDuzSuq3pr_V-11">
          <mxGeometry relative="1" as="geometry" />
        </mxCell>
        <mxCell id="TxpxUodFQDuzSuq3pr_V-40" style="rounded=0;orthogonalLoop=1;jettySize=auto;html=1;exitX=0;exitY=1;exitDx=0;exitDy=0;entryX=1;entryY=0;entryDx=0;entryDy=0;endArrow=none;endFill=0;" edge="1" parent="TxpxUodFQDuzSuq3pr_V-48" source="TxpxUodFQDuzSuq3pr_V-10" target="TxpxUodFQDuzSuq3pr_V-12">
          <mxGeometry relative="1" as="geometry" />
        </mxCell>
        <mxCell id="TxpxUodFQDuzSuq3pr_V-41" style="rounded=0;orthogonalLoop=1;jettySize=auto;html=1;exitX=0.25;exitY=1;exitDx=0;exitDy=0;entryX=0.5;entryY=0;entryDx=0;entryDy=0;endArrow=none;endFill=0;" edge="1" parent="TxpxUodFQDuzSuq3pr_V-48" source="TxpxUodFQDuzSuq3pr_V-10" target="TxpxUodFQDuzSuq3pr_V-13">
          <mxGeometry relative="1" as="geometry" />
        </mxCell>
        <mxCell id="TxpxUodFQDuzSuq3pr_V-42" style="rounded=0;orthogonalLoop=1;jettySize=auto;html=1;exitX=0.75;exitY=1;exitDx=0;exitDy=0;endArrow=none;endFill=0;" edge="1" parent="TxpxUodFQDuzSuq3pr_V-48" source="TxpxUodFQDuzSuq3pr_V-10" target="TxpxUodFQDuzSuq3pr_V-14">
          <mxGeometry relative="1" as="geometry" />
        </mxCell>
        <mxCell id="TxpxUodFQDuzSuq3pr_V-43" style="rounded=0;orthogonalLoop=1;jettySize=auto;html=1;exitX=1;exitY=1;exitDx=0;exitDy=0;entryX=0;entryY=0.5;entryDx=0;entryDy=0;endArrow=none;endFill=0;" edge="1" parent="TxpxUodFQDuzSuq3pr_V-48" source="TxpxUodFQDuzSuq3pr_V-10" target="TxpxUodFQDuzSuq3pr_V-15">
          <mxGeometry relative="1" as="geometry" />
        </mxCell>
        <mxCell id="TxpxUodFQDuzSuq3pr_V-44" style="rounded=0;orthogonalLoop=1;jettySize=auto;html=1;exitX=1;exitY=0.5;exitDx=0;exitDy=0;entryX=0;entryY=0.5;entryDx=0;entryDy=0;endArrow=none;endFill=0;" edge="1" parent="TxpxUodFQDuzSuq3pr_V-48" source="TxpxUodFQDuzSuq3pr_V-10" target="TxpxUodFQDuzSuq3pr_V-16">
          <mxGeometry relative="1" as="geometry" />
        </mxCell>
        <mxCell id="TxpxUodFQDuzSuq3pr_V-10" value="Transaction&lt;br&gt;Notifications" style="rounded=0;whiteSpace=wrap;html=1;" vertex="1" parent="TxpxUodFQDuzSuq3pr_V-48">
          <mxGeometry x="120" width="120" height="60" as="geometry" />
        </mxCell>
        <mxCell id="TxpxUodFQDuzSuq3pr_V-11" value="&lt;u&gt;NotificationID&lt;/u&gt;" style="ellipse;whiteSpace=wrap;html=1;" vertex="1" parent="TxpxUodFQDuzSuq3pr_V-48">
          <mxGeometry y="5" width="80" height="50" as="geometry" />
        </mxCell>
        <mxCell id="TxpxUodFQDuzSuq3pr_V-12" value="TransactionID" style="ellipse;whiteSpace=wrap;html=1;" vertex="1" parent="TxpxUodFQDuzSuq3pr_V-48">
          <mxGeometry x="10" y="70" width="80" height="50" as="geometry" />
        </mxCell>
        <mxCell id="TxpxUodFQDuzSuq3pr_V-13" value="AccountID" style="ellipse;whiteSpace=wrap;html=1;" vertex="1" parent="TxpxUodFQDuzSuq3pr_V-48">
          <mxGeometry x="100" y="90" width="80" height="50" as="geometry" />
        </mxCell>
        <mxCell id="TxpxUodFQDuzSuq3pr_V-14" value="Notification&lt;br&gt;Type" style="ellipse;whiteSpace=wrap;html=1;" vertex="1" parent="TxpxUodFQDuzSuq3pr_V-48">
          <mxGeometry x="190" y="90" width="80" height="50" as="geometry" />
        </mxCell>
        <mxCell id="TxpxUodFQDuzSuq3pr_V-15" value="Notification&lt;br&gt;Date" style="ellipse;whiteSpace=wrap;html=1;" vertex="1" parent="TxpxUodFQDuzSuq3pr_V-48">
          <mxGeometry x="280" y="60" width="80" height="50" as="geometry" />
        </mxCell>
        <mxCell id="TxpxUodFQDuzSuq3pr_V-16" value="Notification&lt;br&gt;Status" style="ellipse;whiteSpace=wrap;html=1;" vertex="1" parent="TxpxUodFQDuzSuq3pr_V-48">
          <mxGeometry x="280" width="80" height="50" as="geometry" />
        </mxCell>
        <mxCell id="TxpxUodFQDuzSuq3pr_V-75" value="n" style="text;html=1;align=center;verticalAlign=middle;whiteSpace=wrap;rounded=0;" vertex="1" parent="TxpxUodFQDuzSuq3pr_V-48">
          <mxGeometry x="203" y="-25" width="60" height="30" as="geometry" />
        </mxCell>
        <mxCell id="TxpxUodFQDuzSuq3pr_V-51" style="rounded=0;orthogonalLoop=1;jettySize=auto;html=1;exitX=1;exitY=0.5;exitDx=0;exitDy=0;entryX=0;entryY=1;entryDx=0;entryDy=0;endArrow=none;endFill=0;" edge="1" parent="1" source="TxpxUodFQDuzSuq3pr_V-49" target="b7hbQGppqmH5EkRF_Ry8-17">
          <mxGeometry relative="1" as="geometry" />
        </mxCell>
        <mxCell id="TxpxUodFQDuzSuq3pr_V-49" value="tạo" style="rhombus;whiteSpace=wrap;html=1;" vertex="1" parent="1">
          <mxGeometry x="320" y="305" width="80" height="80" as="geometry" />
        </mxCell>
        <mxCell id="TxpxUodFQDuzSuq3pr_V-50" style="rounded=0;orthogonalLoop=1;jettySize=auto;html=1;exitX=1;exitY=1;exitDx=0;exitDy=0;entryX=0;entryY=0.5;entryDx=0;entryDy=0;endArrow=none;endFill=0;" edge="1" parent="1" source="b7hbQGppqmH5EkRF_Ry8-1" target="TxpxUodFQDuzSuq3pr_V-49">
          <mxGeometry relative="1" as="geometry" />
        </mxCell>
        <mxCell id="TxpxUodFQDuzSuq3pr_V-54" style="rounded=0;orthogonalLoop=1;jettySize=auto;html=1;exitX=0.5;exitY=1;exitDx=0;exitDy=0;entryX=1;entryY=0.5;entryDx=0;entryDy=0;endArrow=none;endFill=0;" edge="1" parent="1" source="TxpxUodFQDuzSuq3pr_V-52" target="b7hbQGppqmH5EkRF_Ry8-29">
          <mxGeometry relative="1" as="geometry" />
        </mxCell>
        <mxCell id="TxpxUodFQDuzSuq3pr_V-52" value="chuyển" style="rhombus;whiteSpace=wrap;html=1;" vertex="1" parent="1">
          <mxGeometry x="200" y="420" width="80" height="80" as="geometry" />
        </mxCell>
        <mxCell id="TxpxUodFQDuzSuq3pr_V-53" style="rounded=0;orthogonalLoop=1;jettySize=auto;html=1;exitX=0.5;exitY=1;exitDx=0;exitDy=0;entryX=0.5;entryY=0;entryDx=0;entryDy=0;endArrow=none;endFill=0;" edge="1" parent="1" source="b7hbQGppqmH5EkRF_Ry8-1" target="TxpxUodFQDuzSuq3pr_V-52">
          <mxGeometry relative="1" as="geometry" />
        </mxCell>
        <mxCell id="TxpxUodFQDuzSuq3pr_V-58" style="edgeStyle=orthogonalEdgeStyle;rounded=0;orthogonalLoop=1;jettySize=auto;html=1;exitX=0.5;exitY=1;exitDx=0;exitDy=0;entryX=0.5;entryY=0;entryDx=0;entryDy=0;endArrow=none;endFill=0;" edge="1" parent="1" source="TxpxUodFQDuzSuq3pr_V-55" target="TxpxUodFQDuzSuq3pr_V-10">
          <mxGeometry relative="1" as="geometry" />
        </mxCell>
        <mxCell id="TxpxUodFQDuzSuq3pr_V-67" style="edgeStyle=orthogonalEdgeStyle;rounded=0;orthogonalLoop=1;jettySize=auto;html=1;exitX=1;exitY=0.5;exitDx=0;exitDy=0;entryX=0;entryY=0.5;entryDx=0;entryDy=0;endArrow=none;endFill=0;" edge="1" parent="1" source="TxpxUodFQDuzSuq3pr_V-55" target="b7hbQGppqmH5EkRF_Ry8-38">
          <mxGeometry relative="1" as="geometry">
            <mxPoint x="413" y="565" as="targetPoint" />
          </mxGeometry>
        </mxCell>
        <mxCell id="TxpxUodFQDuzSuq3pr_V-55" value="thông báo" style="rhombus;whiteSpace=wrap;html=1;" vertex="1" parent="1">
          <mxGeometry x="320" y="545" width="80" height="80" as="geometry" />
        </mxCell>
        <mxCell id="TxpxUodFQDuzSuq3pr_V-57" style="edgeStyle=orthogonalEdgeStyle;rounded=0;orthogonalLoop=1;jettySize=auto;html=1;exitX=1;exitY=0.75;exitDx=0;exitDy=0;entryX=0;entryY=0.5;entryDx=0;entryDy=0;endArrow=none;endFill=0;" edge="1" parent="1" source="b7hbQGppqmH5EkRF_Ry8-29" target="TxpxUodFQDuzSuq3pr_V-55">
          <mxGeometry relative="1" as="geometry" />
        </mxCell>
        <mxCell id="TxpxUodFQDuzSuq3pr_V-61" value="n" style="text;html=1;align=center;verticalAlign=middle;whiteSpace=wrap;rounded=0;" vertex="1" parent="1">
          <mxGeometry x="460" y="275" width="60" height="30" as="geometry" />
        </mxCell>
        <mxCell id="TxpxUodFQDuzSuq3pr_V-66" value="1" style="text;html=1;align=center;verticalAlign=middle;whiteSpace=wrap;rounded=0;" vertex="1" parent="1">
          <mxGeometry x="310" y="731" width="60" height="30" as="geometry" />
        </mxCell>
        <mxCell id="TxpxUodFQDuzSuq3pr_V-72" style="rounded=0;orthogonalLoop=1;jettySize=auto;html=1;exitX=0.5;exitY=1;exitDx=0;exitDy=0;entryX=0.75;entryY=0;entryDx=0;entryDy=0;endArrow=none;endFill=0;" edge="1" parent="1" source="TxpxUodFQDuzSuq3pr_V-70" target="TxpxUodFQDuzSuq3pr_V-10">
          <mxGeometry relative="1" as="geometry" />
        </mxCell>
        <mxCell id="TxpxUodFQDuzSuq3pr_V-70" value="thông báo" style="rhombus;whiteSpace=wrap;html=1;" vertex="1" parent="1">
          <mxGeometry x="450" y="420" width="80" height="80" as="geometry" />
        </mxCell>
        <mxCell id="TxpxUodFQDuzSuq3pr_V-71" style="rounded=0;orthogonalLoop=1;jettySize=auto;html=1;exitX=0.5;exitY=1;exitDx=0;exitDy=0;entryX=0.5;entryY=0;entryDx=0;entryDy=0;endArrow=none;endFill=0;" edge="1" parent="1" source="TxpxUodFQDuzSuq3pr_V-73" target="TxpxUodFQDuzSuq3pr_V-70">
          <mxGeometry relative="1" as="geometry" />
        </mxCell>
        <mxCell id="TxpxUodFQDuzSuq3pr_V-74" value="" style="edgeStyle=orthogonalEdgeStyle;rounded=0;orthogonalLoop=1;jettySize=auto;html=1;exitX=0.5;exitY=1;exitDx=0;exitDy=0;entryX=0.5;entryY=0;entryDx=0;entryDy=0;" edge="1" parent="1" source="b7hbQGppqmH5EkRF_Ry8-17" target="TxpxUodFQDuzSuq3pr_V-73">
          <mxGeometry relative="1" as="geometry">
            <mxPoint x="657" y="275" as="sourcePoint" />
            <mxPoint x="490" y="435" as="targetPoint" />
          </mxGeometry>
        </mxCell>
        <mxCell id="TxpxUodFQDuzSuq3pr_V-73" value="1" style="text;html=1;align=center;verticalAlign=middle;whiteSpace=wrap;rounded=0;" vertex="1" parent="1">
          <mxGeometry x="640" y="275" width="60" height="30" as="geometry" />
        </mxCell>
      </root>
    </mxGraphModel>
  </diagram>
</mxfile>
